<?xml version="1.0" standalone="no"?>
<!DOCTYPE svg PUBLIC "-//W3C//DTD SVG 20010904//EN"
 "http://www.w3.org/TR/2001/REC-SVG-20010904/DTD/svg10.dtd">
<svg version="1.0" xmlns="http://www.w3.org/2000/svg"
 width="512.000000pt" height="512.000000pt" viewBox="0 0 512.000000 512.000000"
 preserveAspectRatio="xMidYMid meet">
<g transform="translate(0.000000,512.000000) scale(0.100000,-0.100000)"
fill="#000000" stroke="none">
<path d="M4945 5048 c-91 -90 -326 -287 -551 -463 -249 -194 -562 -444 -669
-535 -49 -42 -121 -102 -158 -133 l-68 -58 -22 33 c-27 40 -113 88 -224 124
-117 38 -114 39 -408 -124 -60 -34 -164 -85 -230 -113 -207 -88 -421 -198
-468 -239 -43 -38 -48 -48 -92 -188 -68 -216 -90 -270 -145 -357 -44 -69 -50
-86 -50 -131 0 -47 4 -58 40 -99 22 -25 40 -48 40 -49 0 -2 -11 -28 -25 -57
-31 -69 -55 -162 -55 -215 0 -36 6 -47 45 -83 28 -26 54 -41 70 -41 38 0 123
85 167 167 49 91 98 242 105 323 5 59 -10 154 -32 213 -11 27 14 20 46 -14 16
-17 33 -28 38 -24 6 3 42 58 82 123 93 152 118 184 132 175 6 -4 65 -8 132 -9
66 -2 230 -12 365 -24 135 -11 323 -23 418 -27 147 -5 177 -9 197 -25 16 -12
48 -82 101 -216 109 -279 183 -422 218 -422 18 0 60 48 84 95 25 51 49 134 58
205 6 51 11 60 69 116 42 41 64 71 68 94 12 57 8 174 -8 234 -9 33 -14 61 -12
63 6 6 62 -106 91 -182 39 -103 37 -102 82 -74 22 13 107 70 189 127 83 58
241 165 353 238 l202 134 0 755 0 755 -52 -2 c-51 -1 -55 -4 -123 -70z"/>
<path d="M5015 3510 c-55 -38 -174 -128 -265 -200 -91 -73 -252 -200 -358
-282 -106 -82 -197 -158 -202 -168 -6 -10 -10 -63 -10 -117 -1 -182 -15 -211
-119 -239 l-57 -16 -29 -71 c-16 -40 -51 -104 -77 -144 -35 -51 -51 -88 -59
-130 -13 -69 -23 -83 -58 -83 -21 0 -31 -10 -55 -53 -17 -31 -76 -98 -145
-164 l-115 -113 13 -57 c24 -112 25 -139 4 -160 -20 -20 -82 -46 -134 -57 -23
-5 -28 -14 -39 -68 -18 -81 -59 -127 -155 -173 -89 -43 -212 -76 -257 -68 -31
4 -44 -3 -139 -79 -149 -119 -157 -122 -359 -113 -142 6 -173 10 -222 31 -32
13 -77 24 -102 24 -40 0 -47 4 -60 29 -15 27 -18 28 -113 35 -56 3 -112 2
-131 -3 -77 -23 -161 -87 -657 -500 -330 -276 -637 -541 -650 -560 -4 -8 693
-11 2324 -11 l2331 0 0 1790 c0 985 -1 1790 -2 1790 -2 -1 -48 -32 -103 -70z"/>
<path d="M2755 1879 c-49 -11 -95 -25 -103 -33 -7 -7 -15 -37 -18 -67 -2 -30
-11 -144 -20 -254 -9 -110 -24 -270 -34 -355 -9 -85 -16 -156 -15 -158 16 -19
310 194 327 237 7 16 13 149 16 339 l4 312 -33 -1 c-19 -1 -74 -10 -124 -20z"/>
<path d="M3026 1803 c-4 -32 -24 -177 -46 -323 -22 -146 -40 -269 -40 -274 0
-17 106 5 173 36 37 17 81 47 97 65 37 42 39 82 10 303 -11 85 -23 174 -26
196 -4 37 -8 42 -36 48 -17 3 -52 6 -79 6 l-48 0 -5 -57z"/>
<path d="M3270 1743 c1 -16 11 -71 23 -123 20 -82 26 -95 45 -98 31 -5 75 42
67 71 -15 49 -47 106 -81 141 -42 43 -54 45 -54 9z"/>
<path d="M2434 1740 c-50 -10 -175 -48 -190 -58 -7 -4 -13 -61 -17 -152 -4
-124 -10 -166 -41 -285 l-36 -139 27 -28 c34 -36 97 -56 213 -69 86 -10 95 -9
107 7 10 13 13 68 13 209 0 106 3 267 7 358 l6 167 -24 -1 c-13 -1 -42 -5 -65
-9z"/>
</g>
</svg>
